<?xml version="1.0" encoding="utf-8"?>
<!-- Generator: Adobe Illustrator 18.0.0, SVG Export Plug-In . SVG Version: 6.00 Build 0)  -->
<!DOCTYPE svg PUBLIC "-//W3C//DTD SVG 1.1//EN" "http://www.w3.org/Graphics/SVG/1.1/DTD/svg11.dtd">
<svg version="1.1" id="Layer_1" xmlns="http://www.w3.org/2000/svg" xmlns:xlink="http://www.w3.org/1999/xlink" x="0px" y="0px"
	 viewBox="0 0 32 32" enable-background="new 0 0 32 32" xml:space="preserve">
<g>
	<path fill="#929397" d="M8,25c-1.7,0-3,1.3-3,3s1.3,3,3,3s3-1.3,3-3S9.7,25,8,25z M8,29.2c-0.7,0-1.3-0.6-1.3-1.3
		c0-0.7,0.6-1.3,1.3-1.3s1.2,0.6,1.2,1.3C9.2,28.7,8.7,29.2,8,29.2z"/>
	<path fill="#929397" d="M27,25c-1.7,0-3,1.3-3,3s1.3,3,3,3s3-1.3,3-3S28.7,25,27,25z M27,29.2c-0.7,0-1.3-0.6-1.3-1.3
		s0.6-1.3,1.3-1.3c0.7,0,1.2,0.6,1.2,1.3S27.7,29.2,27,29.2z"/>
	<rect x="6" y="7" fill="#C31D33" width="12" height="13"/>
	<polygon fill="#FF0607" points="32,7 18,7 18,20 29,20 	"/>
	<path fill="#929397" d="M9.5,22C8,22,7,21.1,7,19.7v-10C7,7,6.4,5.2,5.1,3.9L4.2,3C3.7,2.2,2.6,1.7,2.3,2.5L2,4.7l1.5,1.5
		C3.9,6.9,4,8,4,8.6V20c0,2,2,5,5.2,5H18v-3H9.5z"/>
	<path fill="#BBBCBE" d="M27.6,22H18v3h9.6c0.8,0,1.4-0.7,1.4-1.5S28.5,22,27.6,22z"/>
	<circle fill="#C31D33" cx="2" cy="3" r="2"/>
</g>
</svg>
